<svg width="512" height="512" xmlns="http://www.w3.org/2000/svg">

 <g>
  <title>background</title>
  <rect fill="none" id="canvas_background" height="602" width="802" y="-1" x="-1"/>
 </g>
 <g>
  <title>Layer 1</title>
  <g id="Outline">
   <path id="svg_1" d="m199.432,97.608a72,72 0 1 0 21.089,50.912a71.531,71.531 0 0 0 -21.089,-50.912zm-11.315,90.51a56,56 0 1 1 0,-79.2a56,56 0 0 1 0,79.2z"/>
   <path id="svg_2" d="m456.324,346.607l-99.244,-88.216l-10.629,11.959l99.249,88.216a62.239,62.239 0 0 1 20.574,41.976l15.962,-1.084a78.359,78.359 0 0 0 -25.912,-52.851z"/>
   <path id="svg_3" d="m324.02078,250.65413l10.624,-11.952l10.66193,9.47727l-10.624,11.952l-10.66193,-9.47727z"/>
   <path id="svg_4" d="m435.064,370.524l-173.75,-154.444a8,8 0 0 0 -10.97,0.321l-13.275,-13.276a104.45,104.45 0 0 0 9.931,-88.191l21.17,-29.644a8,8 0 0 0 -0.853,-10.307l-45.259,-45.26a8,8 0 0 0 -10.307,-0.853l-29.646,21.173a104.125,104.125 0 0 0 -132.062,132.057l-21.173,29.65a8,8 0 0 0 0.853,10.307l45.259,45.26a8,8 0 0 0 10.307,0.853l29.647,-21.17a104.455,104.455 0 0 0 88.189,-9.928l13.275,13.272a8,8 0 0 0 -0.321,10.971l154.445,173.75a45.287,45.287 0 0 0 32.827,15.325c0.465,0.013 0.928,0.02 1.392,0.02a45.716,45.716 0 0 0 30.321,-79.886zm-219.529,-324.695l35.677,35.676l-11.758,16.463a105.067,105.067 0 0 0 -40.381,-40.382l16.462,-11.757zm-134.03,205.382l-35.677,-35.676l11.758,-16.463a105.06,105.06 0 0 0 40.382,40.382l-16.463,11.757zm4.79,-40.466a88,88 0 1 1 62.226,25.775a88.1,88.1 0 0 1 -62.221,-25.775l-0.005,0zm135.765,11.314q2.845,-2.847 5.442,-5.872l11.528,11.528l-11.316,11.316l-11.528,-11.531q3.023,-2.595 5.874,-5.441zm203.645,203.647a29.717,29.717 0 0 1 -43.222,-1.27l-149.433,-168.113l23.273,-23.273l168.113,149.433a29.717,29.717 0 0 1 1.269,43.223z"/>
  </g>
  <ellipse stroke="#000" ry="63" rx="63" id="svg_7" cy="148" cx="149" stroke-width="1.5" fill="#482816"/>
 </g>
</svg>