<svg height="512" viewBox="0 0 512 512" width="512" xmlns="http://www.w3.org/2000/svg"><g id="Outline"><path d="m81.199 151.796h16v176.409h-16z" transform="matrix(.998 -.068 .068 .998 -16.118 6.623)"/><path d="m88.835 343.981h16v16.037h-16z" transform="matrix(.998 -.068 .068 .998 -23.718 7.402)"/><path d="m224 256h16v16h-16z"/><path d="m232 320h16v16h-16z"/><path d="m152 352h16v16h-16z"/><path d="m208 408h16v16h-16z"/><path d="m312 240h16v16h-16z"/><path d="m456 448h-47.3c.88-.9 1.741-1.823 2.562-2.791a53.024 53.024 0 0 0 12.515-37.209h.223a40 40 0 0 0 0-80h-13.223l-2.886-17.315a8 8 0 0 0 -7.891-6.685h-128a8 8 0 0 0 -7.589 10.53l10.038 30.115-9.58 57.48a53.043 53.043 0 0 0 11.869 43.084c.821.968 1.682 1.89 2.562 2.791h-135.827l-14.682-215.334a56.244 56.244 0 0 0 20.009 3.334 55.309 55.309 0 0 0 21.67-3.964l21.617 145.142 15.826-2.356-22.536-151.309c6.38-4.142 12.5-7.513 24.213-7.513 12.805 0 18.921 4.024 26 8.684 8.063 5.3 17.2 11.316 34.8 11.316s26.742-6.013 34.807-11.317c7.083-4.66 13.2-8.683 26-8.683v-16c-17.594 0-26.733 6.011-34.8 11.315-7.078 4.661-13.197 8.685-26.007 8.685s-18.921-4.024-26-8.683c-8.063-5.305-17.2-11.317-34.8-11.317-12.14 0-20.252 2.862-26.765 6.379l-14.056-94.379h190.667l-11.963 175.456 15.963 1.088 12.545-184a8 8 0 0 0 -7.981-8.544h-201.614l-14.473-97.178-15.826 2.356 14.123 94.822h-38.21a8 8 0 0 0 -7.981 8.544l23.417 343.456h-71.436a24 24 0 0 0 0 48h400a24 24 0 0 0 0-48zm-303.407-336 15.414 103.5c-4.919 2.646-10.523 4.5-19.207 4.5-9.818 0-15.679-2.343-21.259-5.67l-6.977-102.33zm271.407 232a24 24 0 1 1 0 48h-2.556l-8-48zm-135.053 90.867a37.072 37.072 0 0 1 -8.3-30.111l9.907-59.441a8.014 8.014 0 0 0 -.3-3.845l-7.154-21.47h110.123l14.126 84.756a37.139 37.139 0 0 1 -36.633 43.244h-53.432a37.072 37.072 0 0 1 -28.337-13.133zm167.053 45.133h-400a8 8 0 0 1 0-16h400a8 8 0 0 1 0 16z"/></g></svg>