<svg height="512" viewBox="0 0 512 512" width="512" xmlns="http://www.w3.org/2000/svg"><g id="Flat"><path d="m464 368a39.955 39.955 0 0 1 -40 40h-21.33v-16h21.33a23.483 23.483 0 0 0 5.45-.63 24 24 0 0 0 18.55-23.37 24.032 24.032 0 0 0 -24-24h-32v-16h32a40.04 40.04 0 0 1 40 40z" fill="#0093ba"/><path d="m368 104-7.71 113.14-16.29 238.86h-208l-16.16-237.06-7.84-114.94z" fill="#ccdce5"/><path d="m81.199 151.796h16v176.409h-16z" fill="#ccdce5" transform="matrix(.998 -.068 .068 .998 -16.118 6.623)"/><path d="m88.835 343.981h16v16.037h-16z" fill="#ccdce5" transform="matrix(.998 -.068 .068 .998 -23.718 7.402)"/><path d="m331.2 208c-30.4 0-30.4 20-60.81 20s-30.4-20-60.8-20c-11.984 0-19.239 3.111-25.5 6.877l23.822 159.945-15.826 2.356-22.838-153.348c-5.223 2.438-11.52 4.17-20.448 4.17-14.24 0-21.81-4.39-28.96-9.06l16.16 237.06h208l16.29-238.86c-7.19-4.7-14.76-9.14-29.09-9.14z" fill="#8c6439"/><path d="m184.09 214.88c-4.95 2.98-9.29 6.36-14.84 8.95l-17.85-119.83-15.31-102.82 15.82-2.36 15.67 105.18z" fill="#abbac2"/><path d="m207.913 374.822-23.822-159.945c-4.954 2.98-9.3 6.364-14.843 8.953l22.839 153.348z" fill="#704a22"/><path d="m421.55 344h-29.55v-16h26.88z" fill="#047fa7"/><path d="m431.75 407.25a39.929 39.929 0 0 1 -7.75.75h-21.33v-16h21.33a23.483 23.483 0 0 0 5.45-.63l1.57 9.44a61.011 61.011 0 0 1 .73 6.44z" fill="#047fa7"/><path d="m370.716 456h-53.432a45.138 45.138 0 0 1 -44.524-52.559l9.907-59.441-10.667-32h128l15.24 91.441a45.138 45.138 0 0 1 -44.524 52.559z" fill="#0093ba"/><g fill="#704a22"><path d="m224 256h16v16h-16z"/><path d="m232 320h16v16h-16z"/><path d="m152 352h16v16h-16z"/><path d="m208 408h16v16h-16z"/><path d="m312 240h16v16h-16z"/></g><rect fill="#d18b29" height="32" rx="16" width="432" x="40" y="456"/><path d="m167.58 104h-16.18l-15.31-102.82 15.82-2.36z" fill="#798b9b"/></g></svg>