<?xml version="1.0" encoding="iso-8859-1"?>
<!-- Generator: Adobe Illustrator 19.0.0, SVG Export Plug-In . SVG Version: 6.00 Build 0)  -->
<svg version="1.1" id="Capa_1" xmlns="http://www.w3.org/2000/svg" xmlns:xlink="http://www.w3.org/1999/xlink" x="0px" y="0px"
	 viewBox="0 0 512.001 512.001" style="enable-background:new 0 0 512.001 512.001;" xml:space="preserve">
<g>
	<g>
		<path d="M387.48,189.886l-3.14-14.203c-1.79-8.097-8.832-13.751-17.123-13.751h-92.213v-60.26l79.215-67.29
			c6.874-5.839,7.716-16.183,1.876-23.056l-4.722-5.558c-2.828-3.331-6.785-5.359-11.14-5.713
			c-4.357-0.357-8.588,1.008-11.916,3.837l-86.268,73.282c-4.482,3.808-7.053,9.365-7.053,15.246v69.513h-90.212
			c-8.292,0-15.333,5.654-17.123,13.751l-3.14,14.203c-5.376,2.84-9.048,8.489-9.048,14.979v7.153
			c0,9.334,7.593,16.927,16.927,16.927h0.233l17.325,253.534c1.13,16.553,15.013,29.52,31.605,29.52h146.873
			c16.592,0,30.475-12.966,31.605-29.52l17.325-253.534h2.233c9.334,0,16.927-7.594,16.927-16.927v-7.153
			C396.528,198.375,392.856,192.726,387.48,189.886z M249.999,92.419L249.999,92.419c0.001-1.47,0.644-2.86,1.764-3.811
			l86.268-73.282c0.353-0.3,0.731-0.337,0.986-0.317c0.255,0.021,0.622,0.12,0.922,0.473l4.722,5.558
			c0.3,0.354,0.338,0.731,0.317,0.987c-0.021,0.255-0.12,0.622-0.473,0.923l-81.86,69.536c-1.678,1.425-2.646,3.516-2.646,5.717
			v63.729h-10.002V92.419z M142.311,178.923c0.258-1.169,1.275-1.986,2.474-1.986h222.433c1.198,0,2.215,0.817,2.473,1.986
			l1.993,9.016H140.319L142.311,178.923z M345.075,481.458c-0.595,8.714-7.904,15.539-16.637,15.539H181.565
			c-8.734,0-16.042-6.825-16.637-15.539l-17.221-252.012h87.291v26.505c0,4.143,3.359,7.501,7.501,7.501
			c4.143,0,7.501-3.359,7.501-7.501v-26.505h10.002v114.738c-3.432,0.821-6.766,1.514-10.002,2.089V299.19
			c0-4.143-3.359-7.501-7.501-7.501c-4.143,0-7.501,3.359-7.501,7.501v16.26c-29.388,2.542-48.118,19.745-54.505,26.618
			c-2.635,0.244-5.19,1.217-7.369,2.877c-3.866,2.941-5.977,7.591-5.645,12.439l7.655,112.039
			c0.635,9.293,8.429,16.572,17.742,16.572h124.252c9.315,0,17.107-7.279,17.742-16.572l8.104-118.584
			c0.426-6.234-3.163-11.986-8.93-14.314c-12.871-5.193-25.245-5.328-35.033-3.87c-8.031-4.845-16.08-8.723-24.005-11.565v-91.645
			h87.291L345.075,481.458z M284.502,352.542c0.311-0.109,0.639-0.252,0.932-0.402c0.207-0.105,20.835-10.383,42.539-1.881
			l-8.073,118.143c-0.1,1.453-1.318,2.592-2.775,2.592H192.875c-1.457,0-2.675-1.138-2.775-2.592l-7.592-111.109
			c11.983,4.085,32.754,8.6,60.853,5.139c0.049-0.006,0.098-0.012,0.147-0.018C255.811,360.887,269.516,357.831,284.502,352.542z
			 M275.004,339.927v-2.744c1.173,0.491,2.35,1.009,3.531,1.551C277.349,339.147,276.172,339.545,275.004,339.927z M198.172,346.07
			c7.519-6.103,20.01-13.755,36.825-15.544v17.693C219.913,349.427,207.554,348.094,198.172,346.07z M381.525,212.019
			c0,1.061-0.863,1.924-1.924,1.924H132.401c-1.061,0-1.924-0.863-1.924-1.924v-7.153c0-1.061,0.863-1.924,1.924-1.924H379.6
			c1.061,0,1.924,0.863,1.924,1.924V212.019z"/>
	</g>
</g>
<g>
	<g>
		<path d="M314.867,394.866l-9.646-16.705c-1.994-3.455-5.215-5.926-9.068-6.959c-3.854-1.033-7.878-0.503-11.333,1.492
			l-17.062,9.851c-7.131,4.118-9.585,13.27-5.467,20.401l9.646,16.706c1.994,3.455,5.215,5.926,9.068,6.959
			c1.287,0.345,2.593,0.515,3.89,0.515c2.589,0,5.143-0.679,7.443-2.007l17.062-9.851
			C316.532,411.152,318.985,401.999,314.867,394.866z M301.9,402.275l-17.003,9.816l-9.577-16.587l16.943-9.782l9.639,16.552
			L301.9,402.275z"/>
	</g>
</g>
<g>
	<g>
		<path d="M275.364,431.235l-9.111-9.111c-5.823-5.823-15.298-5.823-21.121,0l-9.349,9.348c-5.823,5.823-5.823,15.298,0,21.121
			l9.111,9.111c2.912,2.912,6.736,4.368,10.561,4.368c3.825,0,7.648-1.456,10.561-4.368l9.348-9.348
			C281.187,446.533,281.187,437.058,275.364,431.235z M255.502,451.097l-9.111-9.016l9.252-9.348l9.113,9.014L255.502,451.097z"/>
	</g>
</g>
<g>
	<g>
		<path d="M248.609,389.237c-1.324-3.764-4.035-6.785-7.631-8.51l-17.394-8.341c-3.598-1.725-7.651-1.945-11.414-0.621
			c-3.764,1.324-6.785,4.035-8.51,7.631l-8.519,17.765c-1.724,3.597-1.944,7.65-0.621,11.413c1.325,3.764,4.036,6.785,7.632,8.51
			l17.393,8.34c2.047,0.981,4.242,1.476,6.446,1.476c1.67,0,3.346-0.284,4.968-0.854c3.763-1.324,6.785-4.035,8.51-7.631
			l8.519-17.765C249.713,397.054,249.933,393,248.609,389.237z M225.972,411.869l-17.272-8.282l8.4-17.672l17.332,8.312
			L225.972,411.869z"/>
	</g>
</g>
<g>
</g>
<g>
</g>
<g>
</g>
<g>
</g>
<g>
</g>
<g>
</g>
<g>
</g>
<g>
</g>
<g>
</g>
<g>
</g>
<g>
</g>
<g>
</g>
<g>
</g>
<g>
</g>
<g>
</g>
</svg>
