<svg width="800" height="800" xmlns="http://www.w3.org/2000/svg">

 <g>
  <title>background</title>
  <rect fill="none" id="canvas_background" height="802" width="802" y="-1" x="-1"/>
 </g>
 <g>
  <title>Layer 1</title>
  <g id="svg_1">
   <g id="svg_2">
    <path id="svg_3" d="m594.45001,629.02638c0,-0.009 0,-0.017 0,-0.017l-29.099,-421.981c-0.307,-4.472 -4.036,-7.945 -8.516,-7.945l-375.467,0c-2.594,0 -5.051,1.186 -6.673,3.209c-1.613,2.031 -2.227,4.685 -1.647,7.219l42.394,186.513l-15.701,233.071c-1.391,20.463 5.282,40.243 18.773,55.697c13.5,15.454 32.205,24.73 52.659,26.112c1.775,0.12 3.558,0.179 5.342,0.179l241.519,0c42.342,-0.111 76.698,-34.662 76.595,-76.979c0,-1.698 -0.068,-3.388 -0.179,-5.078zm-76.442,64.99l-241.493,0c-1.391,0 -2.79,-0.043 -4.198,-0.145c-15.915,-1.075 -30.464,-8.286 -40.96,-20.301c-10.487,-12.015 -15.676,-27.409 -14.601,-43.324l15.787,-234.325c0.06,-0.828 -0.009,-1.655 -0.188,-2.466l-40.294,-177.305l356.804,0l28.553,414.02c0.094,1.306 0.145,2.62 0.145,3.951c0.076,32.939 -26.641,59.81 -59.555,59.895z"/>
   </g>
  </g>
  <g stroke="null" id="svg_4">
   <g stroke="null" id="svg_5">
    <path stroke="null" id="svg_6" d="m647.03201,199.08338l-93.867,0l0,17.067l93.867,0c9.412,0 17.067,7.654 17.067,17.067l0,213.342c0.017,7.953 -3.584,15.334 -9.233,19.78l-76.8,49.493l9.25,14.353l77.423,-49.946c10.462,-8.158 16.452,-20.446 16.427,-33.69l0,-213.333c0,-18.824 -15.309,-34.133 -34.134,-34.133z"/>
   </g>
  </g>
  <g id="svg_7">
   <g id="svg_8">
    <path id="svg_9" d="m633.96601,229.21638l-68.267,0l0,17.067l68.267,0l0,187.716c0,2.517 -1.126,4.924 -3.046,6.528l-57.353,33.835l8.67,14.703l57.847,-34.133c0.29,-0.171 0.572,-0.358 0.828,-0.555c6.332,-4.796 10.112,-12.407 10.121,-20.361l0,-187.733c-0.001,-9.412 -7.655,-17.067 -17.067,-17.067z"/>
   </g>
  </g>
  <g id="svg_10">
   <g id="svg_11">
    <path id="svg_12" d="m231.19801,242.28338c-4.872,-0.094 -8.661,3.524 -8.832,8.235l-4.864,136.533c-0.162,4.71 3.516,8.661 8.226,8.832c0.102,0 0.205,0 0.307,0c4.574,0 8.363,-3.627 8.525,-8.235l4.864,-136.533c0.162,-4.71 -3.516,-8.661 -8.226,-8.832z"/>
   </g>
  </g>
  <g id="svg_13"/>
  <g id="svg_14"/>
  <g id="svg_15"/>
  <g id="svg_16"/>
  <g id="svg_17"/>
  <g id="svg_18"/>
  <g id="svg_19"/>
  <g id="svg_20"/>
  <g id="svg_21"/>
  <g id="svg_22"/>
  <g id="svg_23"/>
  <g id="svg_24"/>
  <g id="svg_25"/>
  <g id="svg_26"/>
  <g id="svg_27"/>
  <path id="svg_30" d="m138.83335,223.35421" opacity="0.5" stroke-opacity="null" stroke-width="1.5" stroke="#000" fill="#000000"/>
  <polyline stroke-linecap="round" id="svg_34" points="293.5000367164612,209.41670846939087 294.1666932106018,209.41670846939087 " fill-opacity="null" stroke-opacity="null" stroke-width="1.5" stroke="#000" fill="none"/>
 </g>
</svg>