<svg height="512" viewBox="0 0 512 512" width="512" xmlns="http://www.w3.org/2000/svg"><g id="Outline"><path d="m199.432 97.608a72 72 0 1 0 21.089 50.912 71.531 71.531 0 0 0 -21.089-50.912zm-11.315 90.51a56 56 0 1 1 0-79.2 56 56 0 0 1 0 79.2z"/><path d="m456.324 346.607-99.244-88.216-10.629 11.959 99.249 88.216a62.239 62.239 0 0 1 20.574 41.976l15.962-1.084a78.359 78.359 0 0 0 -25.912-52.851z"/><path d="m326.887 242.23h16v14.273h-16z" transform="matrix(.664 -.747 .747 .664 -73.978 333.998)"/><path d="m435.064 370.524-173.75-154.444a8 8 0 0 0 -10.97.321l-13.275-13.276a104.45 104.45 0 0 0 9.931-88.191l21.17-29.644a8 8 0 0 0 -.853-10.307l-45.259-45.26a8 8 0 0 0 -10.307-.853l-29.646 21.173a104.125 104.125 0 0 0 -132.062 132.057l-21.173 29.65a8 8 0 0 0 .853 10.307l45.259 45.26a8 8 0 0 0 10.307.853l29.647-21.17a104.455 104.455 0 0 0 88.189-9.928l13.275 13.272a8 8 0 0 0 -.321 10.971l154.445 173.75a45.287 45.287 0 0 0 32.827 15.325c.465.013.928.02 1.392.02a45.716 45.716 0 0 0 30.321-79.886zm-219.529-324.695 35.677 35.676-11.758 16.463a105.067 105.067 0 0 0 -40.381-40.382zm-134.03 205.382-35.677-35.676 11.758-16.463a105.06 105.06 0 0 0 40.382 40.382zm4.79-40.466a88 88 0 1 1 62.226 25.775 88.1 88.1 0 0 1 -62.221-25.775zm135.765 11.314q2.845-2.847 5.442-5.872l11.528 11.528-11.316 11.316-11.528-11.531q3.023-2.595 5.874-5.441zm203.645 203.647a29.717 29.717 0 0 1 -43.222-1.27l-149.433-168.113 23.273-23.273 168.113 149.433a29.717 29.717 0 0 1 1.269 43.223z"/></g></svg>